<svg width="1200" height="630" viewBox="0 0 1200 630" xmlns="http://www.w3.org/2000/svg">
  <defs>
    <linearGradient id="bg-gradient" x1="0%" y1="0%" x2="100%" y2="100%">
      <stop offset="0%" style="stop-color:#4285f4;stop-opacity:1" />
      <stop offset="100%" style="stop-color:#34a853;stop-opacity:1" />
    </linearGradient>
  </defs>

  <!-- 背景 -->
  <rect width="1200" height="630" fill="url(#bg-gradient)"/>

  <!-- グリッドパターン（オプション） -->
  <rect x="50" y="50" width="1100" height="530" fill="rgba(255,255,255,0.05)" rx="20"/>

  <!-- タイトル -->
  <text x="600" y="200" font-family="system-ui, -apple-system, sans-serif" font-size="64" font-weight="bold" fill="white" text-anchor="middle">
    Material Symbols
  </text>
  <text x="600" y="270" font-family="system-ui, -apple-system, sans-serif" font-size="48" font-weight="600" fill="white" text-anchor="middle">
    挙動確認 (Vue/Nuxt)
  </text>

  <!-- サブタイトル -->
  <text x="600" y="350" font-family="system-ui, -apple-system, sans-serif" font-size="28" fill="rgba(255,255,255,0.9)" text-anchor="middle">
    各種アイコン表示方法の比較
  </text>
  <text x="600" y="390" font-family="system-ui, -apple-system, sans-serif" font-size="28" fill="rgba(255,255,255,0.9)" text-anchor="middle">
    optical size挙動確認
  </text>

  <!-- アイコンサンプル（Material Symbols） -->
  <g transform="translate(600, 480)">
    <!-- home -->
    <g transform="translate(-200, 0)">
      <circle r="35" fill="white" opacity="0.2"/>
      <svg x="-25" y="-25" width="50" height="50" viewBox="0 -960 960 960">
        <path d="M160-120v-480l320-240 320 240v480H560v-280H400v280H160Z" fill="white"/>
      </svg>
    </g>

    <!-- search -->
    <g transform="translate(-100, 0)">
      <circle r="35" fill="white" opacity="0.2"/>
      <svg x="-25" y="-25" width="50" height="50" viewBox="0 -960 960 960">
        <path d="M784-120 532-372q-30 24-69 38t-83 14q-109 0-184.5-75.5T120-580q0-109 75.5-184.5T380-840q109 0 184.5 75.5T640-580q0 44-14 83t-38 69l252 252-56 56ZM380-400q75 0 127.5-52.5T560-580q0-75-52.5-127.5T380-760q-75 0-127.5 52.5T200-580q0 75 52.5 127.5T380-400Z" fill="white"/>
      </svg>
    </g>

    <!-- menu -->
    <g transform="translate(0, 0)">
      <circle r="35" fill="white" opacity="0.2"/>
      <svg x="-25" y="-25" width="50" height="50" viewBox="0 -960 960 960">
        <path d="M120-240v-80h720v80H120Zm0-200v-80h720v80H120Zm0-200v-80h720v80H120Z" fill="white"/>
      </svg>
    </g>

    <!-- close -->
    <g transform="translate(100, 0)">
      <circle r="35" fill="white" opacity="0.2"/>
      <svg x="-25" y="-25" width="50" height="50" viewBox="0 -960 960 960">
        <path d="m256-200-56-56 224-224-224-224 56-56 224 224 224-224 56 56-224 224 224 224-56 56-224-224-224 224Z" fill="white"/>
      </svg>
    </g>

    <!-- settings -->
    <g transform="translate(200, 0)">
      <circle r="35" fill="white" opacity="0.2"/>
      <svg x="-25" y="-25" width="50" height="50" viewBox="0 -960 960 960">
        <path d="m370-80-16-128q-13-5-24.5-12T307-235l-119 50L78-375l103-78q-1-7-1-13.5v-27q0-6.5 1-13.5L78-585l110-190 119 50q11-8 23-15t24-12l16-128h220l16 128q13 5 24.5 12t22.5 15l119-50 110 190-103 78q1 7 1 13.5v27q0 6.5-2 13.5l103 78-110 190-118-50q-11 8-23 15t-24 12L590-80H370Zm112-260q58 0 99-41t41-99q0-58-41-99t-99-41q-59 0-99.5 41T342-480q0 58 40.5 99t99.5 41Z" fill="white"/>
      </svg>
    </g>
  </g>
</svg>
